<?xml version="1.0" encoding="UTF-8" standalone="no"?>
<svg
   xmlns:dc="http://purl.org/dc/elements/1.1/"
   xmlns:cc="http://creativecommons.org/ns#"
   xmlns:rdf="http://www.w3.org/1999/02/22-rdf-syntax-ns#"
   xmlns:svg="http://www.w3.org/2000/svg"
   xmlns="http://www.w3.org/2000/svg"
   xmlns:sodipodi="http://sodipodi.sourceforge.net/DTD/sodipodi-0.dtd"
   xmlns:inkscape="http://www.inkscape.org/namespaces/inkscape"
   sodipodi:docname="Gard_department_location_map.svg"
   inkscape:version="1.0 (4035a4fb49, 2020-05-01)"
   id="svg2"
   version="1.2"
   viewBox="0 0 4606.3547 4324.073"
   height="1297.2198"
   width="1381.9064">
  <metadata
     id="metadata4400">
    <rdf:RDF>
      <cc:Work
         rdf:about="">
        <dc:format>image/svg+xml</dc:format>
        <dc:type
           rdf:resource="http://purl.org/dc/dcmitype/StillImage" />
        <dc:title />
      </cc:Work>
    </rdf:RDF>
  </metadata>
  <sodipodi:namedview
     inkscape:document-rotation="0"
     inkscape:guide-bbox="true"
     showguides="true"
     fit-margin-bottom="0"
     fit-margin-right="0"
     fit-margin-left="0"
     fit-margin-top="0"
     inkscape:current-layer="layer4"
     inkscape:window-maximized="1"
     inkscape:window-y="0"
     inkscape:window-x="0"
     inkscape:cy="544.48769"
     inkscape:cx="409.35223"
     inkscape:zoom="0.5535282"
     showgrid="false"
     id="namedview4398"
     inkscape:window-height="1016"
     inkscape:window-width="1920"
     inkscape:pageshadow="2"
     inkscape:pageopacity="0"
     guidetolerance="10"
     gridtolerance="10"
     objecttolerance="10"
     borderopacity="1"
     bordercolor="#666666"
     pagecolor="#ffffff" />
  <desc
     id="desc4">Generated with Qt</desc>
  <defs
     id="defs6" />
  <g
     inkscape:groupmode="layer"
     transform="translate(3690.839,169.7936)"
     style="display:inline"
     inkscape:label="Gard"
     id="layer12">
    <path
       inkscape:connector-curvature="0"
       id="path26997"
       transform="matrix(3.3333386,0,0,3.3333386,-3816.3638,-216.04201)"
       d="m 677.5625,65.1875 -17.96875,19.96875 -2.375,18.90625 -1.0625,0.40625 -8.28125,13.71875 -9.90625,5.90625 0.0625,8.125 -3.21875,2.25 -22.5,-5.25 -9,5.375 -4.84375,9.5625 -4.5625,2.9375 -4.9375,-3.34375 -2.3125,5.875 20.625,20.71875 11.09375,20.71875 v 7.53125 l 10.21875,12.03125 10.75,3.125 L 637.625,225 637.03125,221.21875 633.5,232 l -16.875,14.875 1.6875,5.1875 8.84375,8.0625 3.375,11.84375 -4.65625,9.90625 10.09375,10.0625 9.5625,-4.78125 8.625,7.28125 4.40625,6.0625 -2.875,10.84375 -13.28125,0.9375 -6.71875,10.0625 3.65625,28.40625 -2.96875,1.03125 -7.0625,22.75 2.09375,3.3125 14.40625,3.46875 5.6875,22.625 6.4375,-1.03125 0.15625,9.59375 -36.9375,-20.4375 -3.84375,0.4375 2.875,23.5625 -6.09375,3.09375 -6.59375,-1.71875 -0.78125,11.59375 -13.1875,3.625 -17.46875,21.75 -32.875,-10.1875 -6.0625,0.90625 -3.53125,4.84375 -7.625,4.5625 -11.1875,1.375 -19.375,-16.6875 -6.875,-1.34375 -3.96875,-9.9375 -3.53125,-0.25 -16.40625,-6.71875 -7.59375,-8.375 -17.65625,-2.3125 -9.1875,-6.0625 -6.5,-9.4375 0.5,-3.84375 -11.3125,-1.78125 -2.5,7.53125 -6.5,4.09375 -8.3125,-7.6875 -9.65625,6.34375 -5.8125,19.46875 1.9375,7.40625 10.21875,5.90625 1.3125,3.84375 -9.15625,7.25 -2.4375,19.84375 -21.59375,6.28125 -29.28125,-7.5625 -3.875,-0.84375 -16.875,10.1875 -9.0625,-7.625 -22.625,-6.28125 -19.53125,2.28125 -34.3125,-7.1875 -4.6875,-6.34375 -3.53125,-15.15625 -25.5,-16.5 -3.59375,-7.03125 -15.25,-2.4375 -29.90625,14.84375 -5.21875,18.78125 -8,7.28125 2.625,10.53125 0.1875,21.25 -10.71875,4.40625 -15.5,0.21875 -22.75,14.625 9.34375,6 17.0625,21.15625 7.6875,0.3125 14.25,-12.53125 1.96875,2.6875 2.75,-1.75 3.375,5.96875 3.71875,18.15625 8.25,7.1875 3.125,2.53125 12.875,-9.375 4.25,6.65625 11.15625,-2.8125 10.6875,11.9375 14.65625,5.8125 21.65625,17.78125 4.03125,1.71875 1,0.84375 -6,23.75 -20.25,11.8125 -10.46875,26.5625 -22.71875,3.28125 -1.34375,12.03125 -13.53125,7.625 -6.09375,14.78125 5.46875,27.9375 2.9375,2.34375 5.59375,-5 10.03125,4.375 10.59375,1.875 5.9375,-4.625 17.96875,4 9.5625,12.875 1.03125,15.96875 -4.875,15.40625 -7.59375,1.59375 10.96875,11 9.65625,-6.96875 11.125,-2.9375 17.15625,-22.40625 7.6875,-1 16.28125,-5.09375 9.59375,11.5625 -1.53125,24.5 7.0625,10 14.84375,5.59375 10.40625,-4.28125 14,13.8125 5.59375,-5.0625 11.0625,-2.0625 0.3125,-3.9375 L 336.6875,765 l 4.90625,-15.28125 11.9375,-10.1875 3.65625,-10.90625 17.28125,-25.375 11.46875,2.4375 -2,16.15625 2.28125,2.6875 5.8125,-4.125 -0.53125,-12.5 14.4375,2.0625 7.375,1.28125 5.71875,-18.71875 -1.6875,-7.40625 5.75,-9.6875 4.71875,0.8125 -4.0625,-13.78125 12.09375,-7.71875 5.03125,-4.0625 9.40625,0.84375 L 461.5,640.125 l 45.46875,4.46875 -0.21875,15.3125 6.84375,13.59375 20.0625,-0.15625 4.59375,6.375 1.84375,15.1875 -3.46875,7.0625 L 516.84375,734 l 4.78125,14.375 13.6875,5.28125 6.84375,9 6.3125,-4.65625 7.5625,1.9375 7.40625,-8.71875 34.75,-3 11.5625,-10.5 4.1875,6.6875 -1.46875,16.03125 4.375,11.21875 11.9375,6.125 17.09375,0.0625 -0.71875,11.03125 17.3125,1.6875 -4.6875,6.5625 0.375,11.625 -9.78125,12.71875 -1.59375,12.1875 11.5,5.375 17.1875,-9.90625 4.65625,-3.71875 24.40625,16.59375 17.5,16.3125 -0.9375,8.28125 -0.1875,4.40625 9.59375,4.46875 2.96875,7 13.4375,-3.75 5.84375,4.59375 1.21875,11.46875 5.375,5.21875 10.09375,11.0625 8.71875,3.59375 8.875,-4.125 6.5,2.90625 2.875,6.71875 7.15625,20.5 10.25,19.03125 -1.8125,7.03125 -0.5625,3.15625 24.4375,45.125 -0.75,11.625 -18.5,36.5 -16.53125,17.2812 0.5,12.4063 -22.125,-3.2813 -18.59375,3.625 -13.125,-7.625 -6.9375,3.25 -0.34375,0.4688 7.125,0.2812 20.40625,23.4063 -5.9375,15.8125 c 0.12439,0.045 0.23473,0.097 0.34375,0.1562 0.0329,0.6727 1.01832,0.3693 1.125,0.9688 0.68073,0.06 0.90795,0.5998 1.59375,0.6562 0.18228,0.5667 1.04411,0.4258 1.25,0.9688 0.84297,-0.075 0.72034,0.8238 1.65625,0.6562 0.32094,0.5119 1.1983,0.469 1.84375,0.6563 0.67983,0.1196 0.89836,0.7073 1.75,0.6563 0.18828,0.5709 1.07536,0.4233 1.28125,0.9687 0.78648,0.03 0.94932,0.6772 1.78125,0.6563 0.17334,0.5618 1.17393,0.3088 1.21875,1 0.31407,0.3863 0.98037,0.4132 1.125,0.9687 0.61557,0.087 0.79959,0.592 1.125,0.9687 0.67893,0.063 0.87013,0.6064 1.5625,0.6563 0.20619,0.5175 0.78019,0.6857 1.1875,1 0.51936,0.2211 1.00873,0.4681 1.28125,0.9375 0.28689,0.4163 0.93465,0.4578 1.125,0.9688 0.27789,0.4213 0.94065,0.452 1.125,0.9687 0.28689,0.4151 0.93405,0.4888 1.125,1 0.24801,0.5086 0.63341,0.8924 0.6875,1.5937 0.40968,0.3246 0.58837,0.8658 0.8125,1.375 0.25698,0.5325 0.58414,1.0005 0.53125,1.8438 0.51306,0.2809 0.39137,1.2204 0.6875,1.7188 0,0.839 -0.10396,1.7865 0.21875,2.3124 0.41178,-0.6537 1.03694,-0.1524 1.25,0.3126 0.57402,0.1284 0.59419,0.8288 1,1.125 0.0717,0.6776 1.14231,0.36 1.125,1.125 0.69474,0 0.58869,0.7865 1.03125,1.0312 0.33885,0.4301 0.39377,1.1496 0.6875,1.625 -0.0598,0.8639 0.47669,1.0942 0.5,1.875 0.17031,0.9993 -1.27154,0.3662 -0.875,1.5938 -0.44856,0.2868 -0.38421,1.1036 -1.125,1.0937 -0.32811,0.4844 -0.25,1.4057 -0.25,2.2187 -0.26895,0.434 -0.66489,0.7258 -1.03125,1.0626 -0.89049,-0.4417 -0.5609,-0.069 -1.25,0.3124 -0.72105,0.099 -0.26289,1.4188 -1.5,1 -0.23607,-0.4176 -1.6056,-0.4829 -2.0625,-0.1874 -0.54204,0.5809 -1.31985,-0.1708 -1.78125,-0.2813 -0.11055,-0.266 -0.91252,-1.1862 -0.90625,-0.5313 -0.40818,-0.644 -0.64153,0.2186 -1.1875,0.3438 -0.54444,0.2241 -1.05861,0.4531 -1.5,0.7812 -0.33885,0.3624 -0.90564,0.5184 -1.125,1 -0.3747,0.3494 -0.35678,1.6036 0.4375,1.4688 0.90513,-0.042 0.66777,0.875 0.46875,1.4062 -0.71688,0.5343 0.28453,1.3122 0.0625,1.5313 -0.21516,0.632 -0.37686,1.3078 -0.28125,2.25 0.24801,0.4963 0.37473,1.5065 0,1.9687 -0.0926,0.788 -0.36865,1.4058 -0.25,2.4063 -0.0478,0.8047 0.21356,1.892 -0.34375,2.1875 -0.35679,0.8887 -1.05116,-0.1763 -1.71875,0 -0.87465,-0.1494 -0.77792,0.6832 -1.53125,0.6562 -0.33888,0.4683 -1.01101,0.5894 -1.75,0.6563 -0.99837,-0.1554 -1.47501,0.2154 -2.0625,0.4687 -0.62157,0.1973 -0.9445,0.7061 -0.90625,1.5626 0.29283,0.5034 0.33818,1.2743 0.6875,1.7187 0.0807,0.6885 0.45096,1.0626 0.65625,1.625 0.0807,0.6894 0.48131,1.0621 0.6875,1.625 0.17931,0.5798 0.51609,0.9785 0.65625,1.5937 0.29286,0.4416 0.52553,0.9596 0.6875,1.5313 0.26892,0.5008 0.67166,0.8717 0.6875,1.625 0.60693,0.1285 0.25286,1.2001 0.875,1.3125 0,0.7611 0.40988,1.1334 0.6875,1.625 0.13746,0.5707 0.51517,0.9019 0.8125,1.3125 0.0747,0.6622 0.43386,1.0499 0.75,1.4687 0.3036,0.3852 0.45712,0.9209 0.90625,1.1563 -0.12252,0.8789 0.57035,0.9555 0.6875,1.5937 0.40071,0.2868 0.53315,0.8111 0.875,1.1563 -0.0628,0.7838 0.62027,0.8462 0.6875,1.5 0.54774,0.1524 0.34866,1.0437 1.125,0.9687 0.13746,0.571 0.51517,0.9025 0.8125,1.3126 0.31047,0.3911 0.7714,0.6513 1,1.125 0.11355,0.5742 0.88457,0.4609 0.875,1.1562 0.5361,0.1883 0.68248,0.7521 1.1875,0.9688 0.28986,0.389 0.62948,0.7525 1.0625,1 0.17331,0.5282 0.79539,0.5972 1.125,0.9687 0.33885,0.3627 0.49716,0.8959 1.125,0.9687 0.10458,0.5964 0.56262,0.8603 1.125,1 0.17928,0.5663 1.07713,0.4249 1.28125,0.9688 0.71928,0.03 0.88272,0.5629 1.40625,0.7812 0.50442,0.2481 0.9776,0.5537 1.4375,0.8438 0.6078,0.1614 0.85782,0.6861 1.5,0.8125 0.39981,0.3765 1.17219,0.364 1.5,0.8125 0.86241,-0.072 1.10945,0.4758 1.71875,0.6562 0.68073,0.1315 0.90153,0.725 1.78125,0.6563 0.37893,0.3959 0.99558,0.5418 1.5,0.8125 0.44943,0.3422 1.35321,0.2327 1.59375,0.7812 0.81162,0 1.42956,0.1917 1.78125,0.6563 0.6912,0 0.62141,0.7854 1.0625,1.0313 0.95592,-0.3385 1.54668,0.6197 1.78125,0 0.74706,-0.03 0.51591,0.9433 1.21875,0.9687 0.20916,0.5121 0.77542,0.6592 1.1875,0.9687 0.41925,0.3387 0.70073,0.8231 1.625,0.6563 1.00434,-0.251 1.10402,0.3918 1.4375,0.8125 0.28986,0.528 1.86744,-0.2184 1.96875,0.5 0.34215,0.3995 0.32783,1.1484 1.25,0.9688 0.33855,0.3881 1.02069,0.4093 1.5,0.6562 0.32124,0.5122 1.1983,0.4689 1.84375,0.6562 0.56121,-0.1045 1.44937,0.9138 1.75,0 0.35499,0.4452 0.74029,0.8661 1.75,0.6563 0.17631,0.5176 0.85648,0.514 1.09375,0.9687 0.89019,-0.06 1.69799,0.01 1.90625,0.625 0.97299,-0.1971 1.12895,0.4085 1.625,0.6876 0.54714,0.6374 0.74967,-0.3599 1.5,0.1562 0.55701,0.254 1.37182,0.257 1.9375,0.5 0.97386,-0.2062 0.89632,0.6473 1.65625,0.6562 0.48915,0.3493 1.41118,0.2507 2.03125,0.4688 0.64038,0.7513 0.67436,-0.649 1.34375,-0.4688 0.19122,0.5737 0.37299,1.1427 1.3125,0.9688 1.05813,-0.239 0.63782,1.0144 1.8125,0.6562 1.11462,-0.257 1.29318,0.443 2.25,0.3438 1.00824,-0.1704 1.50498,0.1577 2.1875,0.3125 0.45272,0.3849 1.55944,0.1048 1.875,0.625 0.99359,-0.1614 1.13995,0.5594 2.15625,0.375 0.91052,-0.1554 1.21963,0.2443 1.59375,0.625 0.81998,0 1.7872,-0.1185 2.15625,0.3437 0.85672,-0.06 1.58146,0.034 1.75,0.6563 0.30719,0.5483 1.45932,0.2444 2.25,0.3125 0.86211,-0.048 1.04226,0.5846 1.78125,0.6562 0.87465,0.2631 1.25318,-0.8342 1.71875,0 0.62066,0.6195 0.66279,-0.1224 1.625,0 0.22113,-0.8327 0.76349,0.4399 1.625,0 0.95713,-0.206 1.03782,0.4862 1.625,0.6563 0.1332,-0.01 0.23988,0.038 0.34375,0.062 l 1,-24.8125 6.28125,-15.0625 -1.15625,-3.9375 5.09375,-5.1563 39.65625,-15.1562 22.375,-15.5938 -9.46875,-21.9374 L 936.75,1126 l 2.90625,6.5625 -5.125,5.75 1.28125,3.75 12.1875,9.3125 13,-7.6875 4.1875,-6 15,-2.4375 13.90625,-13.5625 15.18745,-0.3437 5.1876,-10.1876 -6.1876,-4.8124 14.9688,-12.625 19,1.5937 9.6875,-7.0937 10.7813,-17.0626 -0.4688,-8.0312 -6.0625,-5.1875 -14.6563,5.8437 -7.6562,-1.2812 -8.0938,-9.2188 -1.3124,-7.8124 19.9062,-45.25 21.1562,-9.9688 -0.9687,-16.375 8.0625,-14.21875 11.2188,-3.78125 19.75,-0.59375 10.5937,-5.25 17.625,8.96875 15.5313,2.84375 15.7187,12.09375 19.375,-0.4375 3.7813,-1.25 0.094,-4.1875 -10.2187,-22.375 -1.6563,-16.5 12.8437,-38.71875 19.1563,-31.34375 2.125,-29.15625 -9.2813,-26.96875 19.1876,-17.75 -4.125,-6.125 -14.6876,0.5 2.9063,-7.25 -4.125,-10.9375 12.0625,-8 3.625,0.375 0.9062,3.6875 4.4063,-6.53125 20.8125,-10.40625 12.7188,-15.03125 -3.7813,0.78125 0.6563,-2.4375 13.8437,-7.71875 10.4687,-12.375 2.875,-8.875 8.4063,-8.6875 22.5313,-7.90625 11.875,-16.5625 18.125,-14.5625 -3.4063,-15.5625 2.2813,-11.875 22.625,2.46875 3.5624,-11.375 -1.8124,-5.6875 -0.6876,-12.5625 -5.9687,-5.125 -11.8125,-1.8125 -5.375,-20 -4.75,-6.75 -9.625,-9.5625 -6.8438,-8.25 -0.5,-11.09375 -19.3437,-12.34375 -2.3125,-4.09375 -1.875,-11.25 -7.5938,1.03125 -16.5937,10.09375 -3.7187,-1.0625 -2.8438,-7.3125 -2.375,-10.84375 -9.4688,-15.71875 10.5626,-38.1875 0.5,-13.78125 -1.3126,-11.875 0.125,-4.03125 -0.8124,-11.90625 3.0624,-2.3125 0.8438,-11.75 -10.3438,-4.375 -3.625,-6.96875 5.2188,-10.78125 -1.375,-7.84375 -7,-3.0625 -14.5938,5.15625 -6.6562,-3.5 -0.5938,-4.59375 3.5938,-19.21875 -20.9688,-28.4375 -1.8124,-13.15625 -13.375,-17.21875 -13,8.25 -9.0313,-15.34375 -5.25,-0.84375 -20,-10.5625 -3.4375,1.625 -10.4062,-5.65625 -9.3126,-18.25 1.7188,-3.75 1.0938,-1.90625 -14.5313,0.46875 -5.6563,-5.46875 -7.625,-0.40625 -2.2187,-7.40625 -4.7813,-5.6875 -18.75,2.40625 -14.6874,-4.09375 -7.625,1.65625 -3.4688,7.25 -1.8438,43.96875 3.5938,-1.375 -10.3438,16.96875 -3.9062,0.125 -2.9375,-7.46875 -22.9687,1.78125 -8.31255,-7.5625 -1.40625,-11.9375 8,-27.53125 0.7188,-8.03125 -5.4688,-10.9375 -6.90625,-3.21875 -13.65625,8.125 -35.9375,2.125 2.8125,7 -9,12.5 -12.9375,8.125 -11.125,-0.21875 0.5,26.875 -12.3125,23.96875 -12.03125,8.625 -11.15625,-4.28125 -8.96875,-8.21875 -14.28125,-16.4375 -24.125,-12.5625 -6.9375,-21.1875 -13.1875,6.59375 -15.25,-1.40625 -0.96875,-12.46875 -12.0625,-16.21875 -7.25,9.1875 -6.78125,-1.0625 -4.5,-3.625 -24.28125,5.75 -11.0625,10.40625 -7.0625,3.34375 -2.71875,-1.90625 -10,-12.8125 12.5625,-8.0625 1.96875,-25.96875 2.75,-6.28125 -4.03125,-9.84375 0.71875,-7.25 -7.46875,-6.90625 -1.09375,-11.1875 3.1875,-2.09375 10.625,2.28125 7.25,-13.09375 -11.03125,-11.4375 -13.75,-7.1875 6.15625,-14.8125 -6.71875,-14.625 L 698.375,81.0625 691.25,72.625 Z"
       style="font-style:normal;font-weight:400;font-size:34.375px;font-family:'MS Shell Dlg 2';display:inline;opacity:1;fill:#ffffff;fill-opacity:1;stroke:none" />
  </g>
  <g
     transform="translate(548.96145,1919.4811)"
     style="display:inline"
     inkscape:label="Départements"
     id="layer4"
     inkscape:groupmode="layer">
    <g
       transform="matrix(117.61807,0,0,117.61807,-4573.2235,-3944.9935)"
       font-size="34.375"
       font-weight="400"
       font-style="normal"
       id="g336"
       style="font-style:normal;font-weight:400;font-size:34.375px;font-family:'MS Shell Dlg 2';display:inline;fill:#ffffff;fill-opacity:1;fill-rule:evenodd;stroke:#646464;stroke-width:0.0850211;stroke-linecap:square;stroke-linejoin:bevel;stroke-miterlimit:4;stroke-dasharray:none;stroke-opacity:1">
      <polyline
         vector-effect="none"
         points="67.279,24.9861 66.8996,24.4986 66.5315,24.7318 66.2756,24.2972 66.1268,24.2733 65.5603,23.9738 65.4622,24.0204 65.168,23.8598 64.9035,23.3422 64.9521,23.2367 64.9833,23.1821 64.5715,23.196 64.4113,23.0404 64.1949,23.0288 64.1326,22.8194 63.997,22.6578 63.4653,22.7262 63.0491,22.6104 62.8331,22.6572 62.7351,22.8629 62.6821,24.1083 62.7843,24.0698 62.491,24.5509 62.3806,24.5542 62.2975,24.3424 61.6459,24.3926 61.4107,24.1786 61.3713,23.8402 61.5973,23.0604 61.6179,22.8325 61.4632,22.5223 61.2671,22.4311 60.8801,22.6616 59.8619,22.722 59.9419,22.9202 59.686,23.2741 59.3194,23.5049 59.0044,23.4984 59.0186,24.2603 58.6696,24.9397 58.3285,25.1838 58.0129,25.0622 57.7587,24.8295 57.3536,24.3638 56.6701,24.0075 56.4732,23.4076 56.0996,23.5938 55.6678,23.5539 55.6402,23.2005 55.2982,22.7417 55.0928,23.0013 54.9008,22.9712 54.7733,22.8692 54.085,23.0317 53.7709,23.3269 53.5715,23.4216 53.4937,23.3674 53.2105,23.0043 53.5671,22.7756 53.6226,22.0401 53.7008,21.8619 53.5858,21.5826 53.6066,21.3771 53.3949,21.182 53.3638,20.8648 53.4541,20.8052 53.755,20.8703 53.9611,20.4989 53.6482,20.1748 53.2588,19.9706 53.4332,19.5516 53.2425,19.1366 52.9392,19.125 52.7376,18.886 52.3496,18.6754 "
         id="polyline372"
         style="fill:none;stroke:#646464;stroke-width:0.0850211;stroke-miterlimit:4;stroke-dasharray:none;stroke-opacity:1" />
      <polyline
         vector-effect="none"
         points="52.3496,18.6754 51.8404,19.2413 51.7736,19.7773 51.7432,19.7886 51.5085,20.1778 51.2277,20.3449 51.2294,20.575 51.1383,20.6386 50.501,20.4901 50.2456,20.6421 50.1082,20.9134 49.9791,20.9964 49.8394,20.9018 49.7734,21.0681 50.3579,21.6559 50.6722,22.2427 50.6721,22.4565 50.9616,22.7974 51.2669,22.8855 51.2181,23.2043 51.2012,23.0973 51.1008,23.4028 50.6228,23.8246 50.6706,23.9712 50.9209,24.2001 51.0165,24.5359 50.8852,24.8165 51.171,25.1016 51.4417,24.9659 51.6866,25.1726 51.8116,25.344 51.7295,25.6512 51.3539,25.6782 51.1634,25.9628 51.2664,26.768 51.1822,26.7975 50.9826,27.4418 51.042,27.5361 51.4497,27.6345 51.6109,28.2756 51.7934,28.2467 51.7982,28.5182 50.7509,27.9388 50.6421,27.9513 50.724,28.6192 50.551,28.7073 50.3646,28.6583 50.3421,28.987 49.9683,29.0899 49.4733,29.7062 48.542,29.4175 48.3701,29.4429 48.2699,29.5803 48.0539,29.7099 47.7366,29.7488 47.1871,29.2753 46.9923,29.2377 46.8797,28.9559 46.7797,28.9486 46.315,28.7584 46.1,28.5209 45.5991,28.455 45.3387,28.2835 45.1548,28.0158 45.1692,27.9068 44.8486,27.8563 44.7778,28.07 44.5933,28.1862 44.3579,27.968 44.084,28.1483 43.9197,28.7001 43.9743,28.9099 44.2643,29.0775 44.301,29.1858 44.0414,29.3911 43.9723,29.9542 43.3608,30.1315 42.5311,29.9175 42.4213,29.8933 41.9423,30.1824 41.6856,29.9662 41.0446,29.7885 40.4912,29.8533 39.5189,29.6494 39.3863,29.4694 39.286,29.04 38.563,28.5725 38.4616,28.3729 38.0289,28.3038 "
         id="polyline388"
         style="fill:none;stroke:#646464;stroke-width:0.0850211;stroke-miterlimit:4;stroke-dasharray:none;stroke-opacity:1" />
      <polyline
         vector-effect="none"
         points="67.279,24.9861 67.3307,25.3594 67.9242,26.1648 67.8226,26.7102 67.8392,26.8399 68.0281,26.9388 68.4419,26.7933 68.6404,26.8803 68.6794,27.1022 68.5314,27.4078 68.634,27.6056 68.9275,27.7293 68.9034,28.0619 68.816,28.128 68.8399,28.4648 68.8358,28.5792 68.8727,28.9163 68.8591,29.3061 68.5599,30.3889 68.8282,30.8346 68.8957,31.1415 68.9756,31.349 69.0812,31.379 69.5518,31.0924 69.7669,31.0632 69.82,31.3826 69.8854,31.4984 70.4339,31.8487 70.4477,32.163 70.6416,32.3965 70.9144,32.6675 71.0493,32.8585 71.2017,33.4256 71.5366,33.4773 71.7053,33.6226 71.7251,33.9785 71.7762,34.1393 71.6752,34.4616 71.0338,34.392 70.9698,34.7282 71.0659,35.1692 70.5525,35.5824 70.2156,36.0512 69.5773,36.2756 69.339,36.5219 "
         id="polyline390"
         style="fill:none;stroke:#646464;stroke-width:0.0850211;stroke-miterlimit:4;stroke-dasharray:none;stroke-opacity:1" />
      <polyline
         vector-effect="none"
         points="38.0289,28.3038 37.1812,28.7247 37.0332,29.2566 36.8068,29.4637 36.881,29.7615 36.887,30.3641 36.5831,30.4888 36.1437,30.4954 35.4985,30.9092 35.764,31.0793 36.2472,31.679 36.4653,31.6882 36.8689,31.3325 36.9244,31.4086 37.003,31.3598 37.098,31.5287 37.2035,32.0434 37.4379,32.2468 37.5263,32.3183 37.8912,32.0532 38.0111,32.2415 38.3271,32.1615 38.63,32.4998 39.0455,32.6648 39.6599,33.1691 39.7735,33.2171 39.8022,33.2416 39.6319,33.9145 39.0581,34.2491 38.7619,35.0024 38.1174,35.095 38.0796,35.4363 37.6961,35.6521 37.523,36.0707 37.6783,36.8629 "
         id="polyline394"
         style="fill:none;stroke:#646464;stroke-width:0.0850211;stroke-miterlimit:4;stroke-dasharray:none;stroke-opacity:1" />
      <polyline
         vector-effect="none"
         points="37.6783,36.8629 37.7617,36.9296 37.9202,36.7876 38.2045,36.9111 38.5051,36.9648 38.6728,36.8332 39.1818,36.9469 39.4536,37.3115 39.4823,37.7641 39.3442,38.2013 39.1286,38.2459 39.4399,38.5577 39.7136,38.3608 40.0285,38.277 40.5154,37.6418 40.7333,37.6138 41.1942,37.4691 41.4658,37.7971 41.4226,38.4914 41.623,38.7746 42.0438,38.933 42.3389,38.8119 42.7357,39.2038 42.8935,39.0602 43.2073,39.0015 43.2164,38.8904 42.6892,38.5082 42.8286,38.0755 43.167,37.7861 43.27,37.4773 43.7603,36.7581 44.0852,36.8271 44.028,37.2853 44.0931,37.3614 44.2578,37.2441 44.2423,36.8905 44.6515,36.9483 44.861,36.9847 45.0229,36.4543 44.9752,36.2443 45.1377,35.9702 45.2717,35.9933 45.1567,35.6028 45.4997,35.3838 45.6421,35.2682 45.9084,35.2923 46.2264,34.9692 47.5152,35.0961 47.5093,35.5302 47.7027,35.9154 48.2712,35.911 48.4013,36.0911 48.4542,36.5222 48.3559,36.7223 47.795,37.6295 47.9309,38.0369 48.3183,38.1871 48.512,38.4422 48.6913,38.3096 48.9053,38.3648 49.1152,38.1177 50.1007,38.0324 50.4278,37.735 50.547,37.9242 50.5052,38.3788 50.6286,38.6966 50.9677,38.8702 51.4514,38.8724 51.4318,39.1848 51.9222,39.2331 51.7895,39.4185 51.8002,39.7484 51.5223,40.1085 51.4773,40.4536 51.8035,40.6059 52.2909,40.3254 52.4224,40.2201 53.1145,40.6906 53.6098,41.1531 53.5838,41.3878 53.5785,41.5122 53.8497,41.6392 53.9338,41.8377 54.3147,41.7307 54.4807,41.8611 54.5155,42.1863 54.6673,42.3342 54.9532,42.6478 55.2011,42.7495 55.4526,42.6331 55.6365,42.715 55.7175,42.9055 55.9204,43.4863 56.2113,44.0256 56.1595,44.225 56.1438,44.3147 56.8361,45.5937 56.8152,45.9228 56.2912,46.9575 55.8227,47.4469 55.8363,47.7985 55.2093,47.7053 54.6822,47.8081 54.3109,47.5925 54.1144,47.6844 54.104,47.6974 54.3063,47.7055 54.8846,48.3689 54.7087,48.8375 "
         id="polyline414"
         style="fill:none;stroke:#646464;stroke-width:0.0850211;stroke-miterlimit:4;stroke-dasharray:none;stroke-opacity:1" />
      <polyline
         vector-effect="none"
         points="57.6723,51.9751 57.7029,51.2841 57.8804,50.8575 57.8477,50.746 57.9922,50.6001 59.1165,50.1704 59.7501,49.7283 59.4816,49.1069 59.6957,48.7393 59.7775,48.9251 59.6326,49.088 59.6686,49.1945 60.0144,49.4587 60.3827,49.2408 60.5012,49.07 60.9259,49.0013 61.3207,48.6165 61.751,48.6068 61.8978,48.3188 61.7227,48.1818 62.1466,47.8247 62.6852,47.8692 62.9598,47.6686 63.2653,47.1848 63.2523,46.9573 63.0805,46.8106 62.665,46.9755 62.4475,46.9392 62.2182,46.6785 62.1814,46.4569 62.7457,45.1744 63.3446,44.8923 63.3176,44.428 63.5458,44.0245 63.8637,43.9178 64.4233,43.9012 64.7239,43.7517 65.2235,44.0064 65.6637,44.0873 66.1094,44.4295 66.6585,44.417 66.7653,44.3816 66.7682,44.2635 66.4784,43.6291 66.4317,43.1616 66.795,42.0637 67.338,41.1761 67.3983,40.3498 67.1356,39.5852 67.6791,39.082 67.5623,38.9082 67.1458,38.9224 67.2289,38.7177 67.1113,38.4071 67.4536,38.1808 67.5558,38.1911 67.5817,38.2954 67.7069,38.1102 68.2968,37.816 68.6571,37.3897 68.5496,37.4116 68.5682,37.3427 68.9612,37.1244 69.2575,36.7737 69.339,36.5219 "
         id="polyline420"
         style="fill:none;stroke:#646464;stroke-width:0.0850211;stroke-miterlimit:4;stroke-dasharray:none;stroke-opacity:1" />
    </g>
  </g>
</svg>
